Stats<svg width="16" height="16" viewBox="0 0 16 16" fill="none" xmlns="http://www.w3.org/2000/svg">
<g clip-path="url(#clip0_3660_20134)">
<path d="M8 4.75403C7.57373 4.75403 7.15163 4.83799 6.75781 5.00112C6.36398 5.16424 6.00615 5.40334 5.70473 5.70476C5.40331 6.00618 5.16421 6.36401 5.00109 6.75784C4.83796 7.15166 4.754 7.57376 4.754 8.00003C4.754 8.4263 4.83796 8.8484 5.00109 9.24222C5.16421 9.63604 5.40331 9.99388 5.70473 10.2953C6.00615 10.5967 6.36398 10.8358 6.75781 10.9989C7.15163 11.1621 7.57373 11.246 8 11.246C8.86089 11.246 9.68652 10.904 10.2953 10.2953C10.904 9.68655 11.246 8.86092 11.246 8.00003C11.246 7.13914 10.904 6.3135 10.2953 5.70476C9.68652 5.09602 8.86089 4.75403 8 4.75403ZM5.754 8.00003C5.754 7.40435 5.99063 6.83307 6.41184 6.41187C6.83304 5.99066 7.40432 5.75403 8 5.75403C8.59567 5.75403 9.16695 5.99066 9.58816 6.41187C10.0094 6.83307 10.246 7.40435 10.246 8.00003C10.246 8.5957 10.0094 9.16698 9.58816 9.58819C9.16695 10.0094 8.59567 10.246 8 10.246C7.40432 10.246 6.83304 10.0094 6.41184 9.58819C5.99063 9.16698 5.754 8.5957 5.754 8.00003Z" />
<path d="M9.796 1.34299C9.269 -0.447012 6.731 -0.447012 6.204 1.34299L6.11 1.66199C6.0732 1.78694 6.0089 1.90207 5.92182 1.99895C5.83474 2.09582 5.72708 2.17198 5.60674 2.22184C5.48641 2.2717 5.35643 2.294 5.22636 2.28711C5.09628 2.28021 4.9694 2.24429 4.855 2.18199L4.563 2.02199C2.923 1.12999 1.13 2.92399 2.023 4.56299L2.182 4.85499C2.24431 4.96938 2.28023 5.09627 2.28712 5.22634C2.29402 5.35642 2.27172 5.48639 2.22186 5.60673C2.17199 5.72707 2.09584 5.83472 1.99896 5.9218C1.90209 6.00889 1.78696 6.07318 1.662 6.10999L1.343 6.20399C-0.446996 6.73099 -0.446996 9.26899 1.343 9.79599L1.662 9.88999C1.78696 9.92679 1.90209 9.99109 1.99896 10.0782C2.09584 10.1653 2.17199 10.2729 2.22186 10.3932C2.27172 10.5136 2.29402 10.6436 2.28712 10.7736C2.28023 10.9037 2.24431 11.0306 2.182 11.145L2.022 11.437C1.13 13.077 2.923 14.871 4.563 13.977L4.855 13.818C4.9694 13.7557 5.09628 13.7198 5.22636 13.7129C5.35643 13.706 5.48641 13.7283 5.60674 13.7781C5.72708 13.828 5.83474 13.9042 5.92182 14.001C6.0089 14.0979 6.0732 14.213 6.11 14.338L6.204 14.657C6.731 16.447 9.269 16.447 9.796 14.657L9.89 14.338C9.92681 14.213 9.99111 14.0979 10.0782 14.001C10.1653 13.9042 10.2729 13.828 10.3933 13.7781C10.5136 13.7283 10.6436 13.706 10.7736 13.7129C10.9037 13.7198 11.0306 13.7557 11.145 13.818L11.437 13.978C13.077 14.871 14.871 13.076 13.977 11.437L13.818 11.145C13.7557 11.0306 13.7198 10.9037 13.7129 10.7736C13.706 10.6436 13.7283 10.5136 13.7782 10.3932C13.828 10.2729 13.9042 10.1653 14.001 10.0782C14.0979 9.99109 14.2131 9.92679 14.338 9.88999L14.657 9.79599C16.447 9.26899 16.447 6.73099 14.657 6.20399L14.338 6.10999C14.2131 6.07318 14.0979 6.00889 14.001 5.9218C13.9042 5.83472 13.828 5.72707 13.7782 5.60673C13.7283 5.48639 13.706 5.35642 13.7129 5.22634C13.7198 5.09627 13.7557 4.96938 13.818 4.85499L13.978 4.56299C14.871 2.92299 13.076 1.12999 11.437 2.02299L11.145 2.18199C11.0306 2.24429 10.9037 2.28021 10.7736 2.28711C10.6436 2.294 10.5136 2.2717 10.3933 2.22184C10.2729 2.17198 10.1653 2.09582 10.0782 1.99895C9.99111 1.90207 9.92681 1.78694 9.89 1.66199L9.796 1.34299ZM7.163 1.62599C7.409 0.790988 8.591 0.790988 8.837 1.62599L8.931 1.94499C9.01002 2.21307 9.14804 2.46008 9.33493 2.66789C9.52182 2.8757 9.75285 3.03905 10.0111 3.14597C10.2693 3.25288 10.5482 3.30066 10.8273 3.28578C11.1064 3.2709 11.3786 3.19375 11.624 3.05999L11.915 2.89999C12.679 2.48499 13.515 3.31999 13.099 4.08499L12.94 4.37699C12.8064 4.62242 12.7295 4.89462 12.7148 5.17364C12.7 5.45267 12.7479 5.73146 12.855 5.98957C12.962 6.24769 13.1254 6.47859 13.3332 6.66536C13.541 6.85214 13.788 6.99005 14.056 7.06899L14.374 7.16299C15.209 7.40899 15.209 8.59099 14.374 8.83699L14.055 8.93099C13.7869 9.01001 13.5399 9.14802 13.3321 9.33491C13.1243 9.5218 12.9609 9.75283 12.854 10.0111C12.7471 10.2693 12.6993 10.5482 12.7142 10.8273C12.7291 11.1064 12.8062 11.3786 12.94 11.624L13.1 11.915C13.515 12.679 12.68 13.515 11.915 13.099L11.624 12.94C11.3785 12.8062 11.1062 12.7291 10.8271 12.7143C10.548 12.6995 10.269 12.7474 10.0108 12.8544C9.75254 12.9614 9.52153 13.1249 9.33468 13.3328C9.14784 13.5407 9.00991 13.7878 8.931 14.056L8.837 14.374C8.591 15.209 7.409 15.209 7.163 14.374L7.069 14.055C6.98995 13.787 6.85196 13.5402 6.66513 13.3325C6.47831 13.1248 6.24739 12.9615 5.98929 12.8546C5.73119 12.7477 5.45245 12.6999 5.17347 12.7146C4.8945 12.7294 4.62236 12.8064 4.377 12.94L4.085 13.1C3.321 13.515 2.485 12.68 2.901 11.915L3.06 11.624C3.19395 11.3785 3.27125 11.1062 3.28623 10.827C3.30121 10.5478 3.25348 10.2688 3.14655 10.0104C3.03962 9.75207 2.8762 9.52093 2.66828 9.33397C2.46037 9.14701 2.21323 9.00897 1.945 8.92999L1.626 8.83599C0.791004 8.58999 0.791004 7.40799 1.626 7.16199L1.945 7.06799C2.21281 6.9889 2.45954 6.85093 2.66715 6.66418C2.87475 6.47742 3.03797 6.24662 3.14486 5.98864C3.25175 5.73067 3.2996 5.45206 3.28492 5.17321C3.27024 4.89435 3.19339 4.62231 3.06 4.37699L2.9 4.08499C2.485 3.32099 3.32 2.48499 4.085 2.90099L4.377 3.05999C4.62236 3.19356 4.8945 3.27056 5.17347 3.28534C5.45245 3.30012 5.73119 3.25231 5.98929 3.1454C6.24739 3.0385 6.47831 2.87522 6.66513 2.66751C6.85196 2.4598 6.98995 2.21293 7.069 1.94499L7.163 1.62599Z" />
</g>
<defs>
<clipPath id="clip0_3660_20134">
<rect width="16" height="16" fill="white"/>
</clipPath>
</defs>
</svg>
