<?xml version="1.0" encoding="UTF-8"?>
<svg width="16px" height="16px" viewBox="0 0 16 16" version="1.1" xmlns="http://www.w3.org/2000/svg" xmlns:xlink="http://www.w3.org/1999/xlink">
    <!-- Generator: Sketch 62 (91390) - https://sketch.com -->
    <title>Clock_icon</title>
    <desc>Created with Sketch.</desc>
    <g id="Page-1" stroke="none" stroke-width="1" fill="none" fill-rule="evenodd">
        <g id="ToDoList_Dashboard" transform="translate(-892.000000, -410.000000)">
            <g id="Your-To-do's" transform="translate(265.000000, 275.000000)">
                <g id="Task_1" transform="translate(32.000000, 112.000000)">
                    <g id="Clock_icon" transform="translate(594.000000, 22.000000)">
                        <rect id="view-box" x="0" y="0" width="18" height="18"></rect>
                        <path d="M9,1.6875 C13.0385822,1.6875 16.3125,4.96141777 16.3125,9 C16.3125,13.0385822 13.0385822,16.3125 9,16.3125 C4.96141777,16.3125 1.6875,13.0385822 1.6875,9 C1.6875,4.96141777 4.96141777,1.6875 9,1.6875 Z M9,2.8125 C5.58273811,2.8125 2.8125,5.58273811 2.8125,9 C2.8125,12.4172619 5.58273811,15.1875 9,15.1875 C12.4172619,15.1875 15.1875,12.4172619 15.1875,9 C15.1875,5.58273811 12.4172619,2.8125 9,2.8125 Z M9,5.2880386 C9.31066017,5.2880386 9.5625,5.53987842 9.5625,5.8505386 L9.5625,5.8505386 L9.5625,9.51700487 L11.3893133,11.3438181 C11.6089832,11.563488 11.6089832,11.9196433 11.3893133,12.1393133 C11.1696433,12.3589832 10.813488,12.3589832 10.5938181,12.1393133 L10.5938181,12.1393133 L8.60225244,10.1477476 C8.49676322,10.0422584 8.4375,9.89918428 8.4375,9.75 L8.4375,9.75 L8.4375,5.8505386 C8.4375,5.53987842 8.68933983,5.2880386 9,5.2880386 Z" id="Shape" fill="#CFD3E6" fill-rule="nonzero"></path>
                    </g>
                </g>
            </g>
        </g>
    </g>
</svg>