<?xml version="1.0" encoding="UTF-8"?>
<svg width="18px" height="18px" viewBox="0 0 18 18" version="1.1" xmlns="http://www.w3.org/2000/svg"
     xmlns:xlink="http://www.w3.org/1999/xlink">
    <title>Category_icon</title>
    <desc>Created with Sketch.</desc>
    <g id="Page-1" stroke="none" stroke-width="1" fill="none" fill-rule="evenodd">
        <g id="ToDoList_Dashboard" transform="translate(-37.000000, -210.000000)" >
            <g id="Sidebar">
                <g id="Categories" transform="translate(37.000000, 208.000000)">
                    <g id="Category_icon">
                        <path d="M13.2688446,14.350225 L5.64835288,13.4294313 C5.30631847,13.385785 5.00079781,13.2290479 4.77013472,12.997681 C4.53947163,12.7663141 4.3836661,12.4603174 4.34106198,12.1181516 L3.44439437,4.91676069 C3.39287336,4.50298088 3.51394724,4.10749056 3.75134632,3.80256494 C3.97930096,3.50977017 4.31450937,3.30047757 4.70715398,3.23867499 L12.4678075,3.95818697 C12.8253495,3.99360344 13.1456477,4.15254878 13.3855978,4.39200716 C13.6255479,4.63146554 13.7851499,4.95143697 13.8212998,5.30890561 L14.5689323,12.7018872 C14.6108859,13.1167462 14.4807129,13.5093357 14.2363367,13.8086988 C14.0018971,14.0958895 13.6623526,14.297281 13.2688446,14.350225 Z"
                              id="Rectangle" stroke-width="0.98" class="iconFill"
                              transform="translate(9.000182, 8.797785) rotate(-45.000000) translate(-9.000182, -8.797785) "></path>
                        <path d="M1.44,13.3703704 L8.01667873,18.26776 C8.60021669,18.7022974 9.39978331,18.7022974 9.98332127,18.26776 L16.56,13.3703704 L16.56,13.3703704"
                              id="Path-3" stroke-width="1.05" stroke-linecap="round" class="iconStroke"></path>
                    </g>
                </g>
            </g>
        </g>
    </g>
</svg>
