<svg id="Layer_1" data-name="Layer 1" xmlns="http://www.w3.org/2000/svg" viewBox="0 0 73.037 23.846">
  <g id="Page-1">
    <g id="ToDoList_Dashboard" data-name="ToDoList Dashboard">
      <g id="Sidebar">
        <g id="ToDoList-Logo">
          <g style="isolation: isolate">
            <g style="isolation: isolate">
              <path d="M21.84.037c.18,0,.36.194.54.585a3.07,3.07,0,0,1,.27,1.3,1.87,1.87,0,0,1-.765,1.59,5.328,5.328,0,0,1-1.965.856,14.971,14.971,0,0,1-2.67.359q-1.47.077-2.85.075-.78,0-1.425-.014c-.43-.01-.8-.026-1.125-.045q-.6,1.289-1.185,2.564T9.54,9.906c-.14.341-.35.855-.63,1.546s-.56,1.454-.84,2.294-.525,1.694-.735,2.565a10.036,10.036,0,0,0-.315,2.325A3.472,3.472,0,0,0,7.17,19.7a1.349,1.349,0,0,0,.48.7l.15.12-.15.121a2.144,2.144,0,0,1-1.23.39,2.043,2.043,0,0,1-1.44-.556,2.607,2.607,0,0,1-.6-1.964,10.608,10.608,0,0,1,.24-2.13q.24-1.171.555-2.31t.66-2.13q.343-.988.585-1.619a.471.471,0,0,0,.075-.2.552.552,0,0,1,.045-.165q-.81-.9-1.74-1.815T3,6.486a16.853,16.853,0,0,0-1.59-1.23A2.636,2.636,0,0,0,.27,4.747a.369.369,0,0,1-.21-.256A1.471,1.471,0,0,1,0,4.056a2.352,2.352,0,0,1,.075-.57,1.843,1.843,0,0,1,.24-.555,1.355,1.355,0,0,1,.435-.42,1.252,1.252,0,0,1,.66-.165q1.17,0,2.205-.03l2.025-.06q.99-.028,2.01-.075t2.22-.075q.06-.18.135-.39a1.771,1.771,0,0,1,.195-.389,1.171,1.171,0,0,1,.285-.3.675.675,0,0,1,.405-.12,1.24,1.24,0,0,1,.915.421,5.384,5.384,0,0,1,.585.689q.15,0,.315-.015c.109-.009.225-.015.345-.015q.96-.03,2.31-.1t2.625-.255a14.829,14.829,0,0,0,2.3-.495A2.019,2.019,0,0,0,21.57.276.355.355,0,0,1,21.84.037ZM6.9,2.526q-2.04.18-3.84.181-.42,0-.84-.016c-.281-.01-.56-.024-.84-.045a14.223,14.223,0,0,0,2.28.181q.78,0,1.59-.076T6.9,2.526ZM3.15,4.446q.3.3.78.841c.32.359.655.755,1,1.184s.7.865,1.05,1.3.665.83.945,1.17q.42-1.08.87-2.145t.9-2.115l.06-.09c-.56-.019-1.06-.04-1.5-.059l-1.3-.061c-.43-.019-.865-.03-1.3-.03Zm3.6,12.57a45.962,45.962,0,0,1,3.93-10.71A27.359,27.359,0,0,0,6.75,17.016Zm1.83-7.71-.06.151a7.426,7.426,0,0,0-.45.944q-.21.525-.45,1.306-.09.268-.225.75t-.27.929q-.135.45-.225.8t-.09.375a2.4,2.4,0,0,0,.33-.75q.27-.75.585-1.68t.585-1.74q.27-.81.33-.929ZM21.6,3.4a1.393,1.393,0,0,0,.75-1.35,2.91,2.91,0,0,0-.06-.57,5.8,5.8,0,0,0-.18-.66,5.4,5.4,0,0,1,.09.931A2.226,2.226,0,0,1,21.6,3.4Z" style="fill: #4f5fff"/>
              <path d="M20.55,12.756a6.3,6.3,0,0,1,.555-.45.79.79,0,0,1,.405-.18c.1,0,.15.041.15.121a1.968,1.968,0,0,1-.24.629,14.85,14.85,0,0,1-1.755,2.564,3.726,3.726,0,0,1-2.145,1.246,6.143,6.143,0,0,1-1.62,1.53,3.527,3.527,0,0,1-1.92.57,3.19,3.19,0,0,1-1.5-.33,3.04,3.04,0,0,1-1.035-.87,3.742,3.742,0,0,1-.6-1.215,4.859,4.859,0,0,1-.2-1.365c0-.14.019-.4.06-.78a9.056,9.056,0,0,1,.195-1.14,6.05,6.05,0,0,1,.33-1.02q.2-.45.435-.45a1.467,1.467,0,0,1,.495.105,1.692,1.692,0,0,1,.525.316.938.938,0,0,1-.03-.226v-.2a3.61,3.61,0,0,1,.27-1.38,3.741,3.741,0,0,1,1.8-1.949,2.77,2.77,0,0,1,1.26-.3,2.829,2.829,0,0,1,1.455.36,3.171,3.171,0,0,1,1,.915,3.844,3.844,0,0,1,.57,1.245,5.342,5.342,0,0,1,.18,1.35,7.3,7.3,0,0,1-.21,1.709,8.461,8.461,0,0,1-.6,1.681,2.842,2.842,0,0,0,.54-.5q.24-.285.48-.615c.16-.22.33-.446.51-.675A7.961,7.961,0,0,1,20.55,12.756Zm-8.88,0a.332.332,0,0,1,.015-.105.328.328,0,0,0,.015-.105.118.118,0,0,1,.03-.089c-.041,0-.09.07-.15.21a4.21,4.21,0,0,0-.18.539q-.09.33-.165.75a4.77,4.77,0,0,0-.075.84,5.841,5.841,0,0,0,.075.96,2.476,2.476,0,0,0,.255.78,4.809,4.809,0,0,1-.18-1.471,8.307,8.307,0,0,1,.1-1.335A4.052,4.052,0,0,1,11.67,12.756Zm2.13,4.38a.91.91,0,0,0,.27.03,2.155,2.155,0,0,0,1.29-.54,4.049,4.049,0,0,1-1.26-.87,5.729,5.729,0,0,1-.99-1.351,4.2,4.2,0,0,0-.18,1.141,2.067,2.067,0,0,0,.225.99A1.3,1.3,0,0,0,13.8,17.136Zm2.25-1.59a6.194,6.194,0,0,0,.39-.811q.21-.508.39-1.109a12.262,12.262,0,0,0,.3-1.23,6.365,6.365,0,0,0,.12-1.17,2.478,2.478,0,0,0-.27-1.245.986.986,0,0,0-.93-.465,1.368,1.368,0,0,0-.81.255,2.166,2.166,0,0,0-.615.69,3.7,3.7,0,0,0-.39.975,4.565,4.565,0,0,0-.135,1.11,4.62,4.62,0,0,0,.105.99,2.988,2.988,0,0,0,.345.885,2.6,2.6,0,0,0,.615.705A2.2,2.2,0,0,0,16.05,15.546Zm.96-6.66a1.814,1.814,0,0,1,.465.316,3,3,0,0,1,.45.494,5.6,5.6,0,0,1,.345.54,1.021,1.021,0,0,1,.15.48c.019.04.04.08.06.12s.03.05.03.03a1.539,1.539,0,0,0-.12-.525,3.252,3.252,0,0,0-.315-.615,2.472,2.472,0,0,0-.48-.54A1.317,1.317,0,0,0,17.01,8.886Z" style="fill: #4f5fff"/>
              <path d="M36.99,3.846a4.294,4.294,0,0,1,.09.9,11.588,11.588,0,0,1-.315,2.444,20.373,20.373,0,0,1-.93,3,22.693,22.693,0,0,1-1.53,3.15,17.082,17.082,0,0,1-2.145,2.925,14.229,14.229,0,0,1-2.745,2.339,9.337,9.337,0,0,1-3.345,1.351.823.823,0,0,1-.3.06h-.3a2.011,2.011,0,0,1-1.035-.255,2.443,2.443,0,0,1-.72-.63,2.526,2.526,0,0,1-.42-.856,3.417,3.417,0,0,1-.135-.929,1.758,1.758,0,0,1,.75-1.486,5.2,5.2,0,0,1,1.74-.824,11.318,11.318,0,0,1,1.92-.36c.62-.061,1.05-.09,1.29-.09h.15q.45,0,.45.39a.439.439,0,0,1-.09.27.4.4,0,0,1-.27.15,7.915,7.915,0,0,0-2.145.54,8.953,8.953,0,0,0-1.53.81,5.014,5.014,0,0,0-.93.779q-.315.361-.315.451,0,.12.3.12a3.743,3.743,0,0,0,.645-.075,5.538,5.538,0,0,0,1-.315,7.271,7.271,0,0,0,2.34-1.395,13.624,13.624,0,0,0,1.98-2.161,18.389,18.389,0,0,0,1.605-2.594A22.848,22.848,0,0,0,33.24,8.827a19.929,19.929,0,0,0,.735-2.566,10.38,10.38,0,0,0,.255-2.085,2.415,2.415,0,0,0-.27-1.3.827.827,0,0,0-.72-.406,2.077,2.077,0,0,0-1.185.51,8.608,8.608,0,0,0-1.395,1.38,16.306,16.306,0,0,0-1.41,2.025,20.689,20.689,0,0,0-1.245,2.446,18.266,18.266,0,0,0-.9,2.609,11.163,11.163,0,0,0-.375,2.549.426.426,0,0,1,.03.181.6.6,0,0,1-.06.27q-.06.12-.3.12a.943.943,0,0,1-.15-.015.961.961,0,0,0-.15-.016.48.48,0,0,1-.21-.059.325.325,0,0,1-.09-.061.054.054,0,0,0-.06.061,2.56,2.56,0,0,1-.51-.165.2.2,0,0,0-.12-.045.048.048,0,0,0-.045.03c-.01.02-.035.029-.075.029a1.194,1.194,0,0,1-.615-.134,1,1,0,0,1-.345-.33,1.074,1.074,0,0,1-.15-.435,3.652,3.652,0,0,1-.03-.45,9.838,9.838,0,0,1,.4-2.5q.4-1.485.96-3T26.355,4.6q.585-1.35.975-2.13a5.371,5.371,0,0,0-1.77,1.3A13.088,13.088,0,0,0,23.925,5.9a13.988,13.988,0,0,0-1.2,2.415,6.129,6.129,0,0,0-.465,2.1,1.564,1.564,0,0,0,.225.915.983.983,0,0,1,.225.464.785.785,0,0,0-.09.105.1.1,0,0,1-.09.045.121.121,0,0,1-.06-.015.132.132,0,0,0-.06-.014c-.04,0-.06.009-.06.029s-.02.03-.06.03a.539.539,0,0,1-.33-.09.061.061,0,0,0-.045.015.058.058,0,0,1-.045.016,1.762,1.762,0,0,1-.825-.2,2.412,2.412,0,0,1-.645-.48,2.111,2.111,0,0,1-.42-.645,1.792,1.792,0,0,1-.15-.69A4.382,4.382,0,0,1,20.2,8.271a11.269,11.269,0,0,1,.99-1.859,13.989,13.989,0,0,1,1.425-1.83A15.584,15.584,0,0,1,24.3,2.991a9.082,9.082,0,0,1,1.74-1.125,3.751,3.751,0,0,1,1.62-.42,1.191,1.191,0,0,1,.48.091,1.722,1.722,0,0,0,.48.119c.06.02.13.041.21.06.16.04.24.1.24.18a2.779,2.779,0,0,1-.3.9,1.364,1.364,0,0,0-.18.33c-.08.18-.17.366-.27.555s-.2.375-.3.555a1.038,1.038,0,0,1-.24.33q-.06.062.18-.33t.54-.885q.3-.5.555-.93t.2-.435q0,.03.105.12a.637.637,0,0,1,.165.33,3.522,3.522,0,0,1-.405,1.545q-.4.827-.735,1.605a15.157,15.157,0,0,1,2.925-3.254A5.18,5.18,0,0,1,34.29,1.026a.812.812,0,0,1,.24.03,2.237,2.237,0,0,1,.765.39,4.519,4.519,0,0,1,.75.7,5.541,5.541,0,0,1,.6.855A3.179,3.179,0,0,1,36.99,3.846Zm-16.11,7.29a2.274,2.274,0,0,1-.48-1.469,6,6,0,0,1,.69-2.521,5.26,5.26,0,0,0-.96,2.521A1.715,1.715,0,0,0,20.88,11.136Zm4.32-1.71q.09-.3.21-.675t.27-.825c.06-.179.14-.405.24-.675s.2-.53.3-.78.185-.48.255-.69a1.779,1.779,0,0,0,.1-.4l-.21.42q-.78,2.34-1.32,3.81a7.86,7.86,0,0,0-.54,1.86.106.106,0,0,0,.12.12c.04,0,.115-.214.225-.645S25.08,10.006,25.2,9.426ZM27,7.236c0-.039-.02-.025-.06.045a2.274,2.274,0,0,0-.15.405q-.33.87-.585,1.606c-.17.49-.32.919-.45,1.29s-.23.665-.3.884a3.337,3.337,0,0,0-.1.361c0,.08.05.119.15.119.06,0,.1-.074.12-.225s.08-.425.18-.825a4.669,4.669,0,0,1,.225-.63c.13-.319.27-.675.42-1.064s.28-.771.39-1.141A3.234,3.234,0,0,0,27,7.236Zm1.23-.6a9.005,9.005,0,0,1,.63-1.065q.36-.525.735-1t.75-.885c.25-.269.475-.5.675-.7a.174.174,0,0,0-.12.061,3.662,3.662,0,0,0-.51.359,3.136,3.136,0,0,0-.42.45,3.769,3.769,0,0,0-.39.63q-.12.151-.345.51t-.45.735c-.15.25-.285.476-.405.675a3.362,3.362,0,0,1-.21.33.027.027,0,0,0,.03-.03Zm2.97-3.36q.06-.058.06-.09c.06,0-.035.106-.285.315s-.535.47-.855.78a9.205,9.205,0,0,0-.885.99,1.618,1.618,0,0,0-.405.945c-.02,0,.075-.134.285-.405s.455-.58.735-.93.55-.679.81-.99S31.1,3.376,31.2,3.276Zm2.1,8.82a.235.235,0,0,0,.03-.15,6.742,6.742,0,0,1-.405.735c-.19.311-.41.65-.66,1.02s-.515.745-.8,1.125-.555.72-.825,1.02a7.237,7.237,0,0,1-.75.735,1,1,0,0,1-.585.284,3.572,3.572,0,0,0,1.245-.795,9.917,9.917,0,0,0,1.095-1.229,12.308,12.308,0,0,0,.915-1.4Q32.97,12.726,33.3,12.1Zm-3.33,3.69q-.06.06-.06.09.06,0,.33-.271a8.316,8.316,0,0,0,.945-1.064q.465-.615.87-1.261t.72-1.274q.315-.63.525-1.08-.15.151-.165.135c-.01-.01-.055.056-.135.2a.167.167,0,0,0-.06.105.1.1,0,0,1-.03.075l-.03.03q-.45.81-.825,1.44t-.69,1.11q-.315.48-.615.855a8.92,8.92,0,0,1-.66.734C30.01,15.686,29.97,15.746,29.97,15.786Z" style="fill: #4f5fff"/>
              <path d="M44.939,12.756a6.3,6.3,0,0,1,.555-.45.793.793,0,0,1,.405-.18c.1,0,.15.041.15.121a1.982,1.982,0,0,1-.239.629,14.794,14.794,0,0,1-1.755,2.564,3.726,3.726,0,0,1-2.145,1.246,6.131,6.131,0,0,1-1.621,1.53,3.527,3.527,0,0,1-1.92.57,3.189,3.189,0,0,1-1.5-.33,3.044,3.044,0,0,1-1.036-.87,3.742,3.742,0,0,1-.6-1.215,4.894,4.894,0,0,1-.194-1.365c0-.14.019-.4.06-.78a9.052,9.052,0,0,1,.194-1.14,6.14,6.14,0,0,1,.331-1.02q.194-.45.435-.45a1.477,1.477,0,0,1,.495.105,1.7,1.7,0,0,1,.525.316.942.942,0,0,1-.031-.226v-.2a3.629,3.629,0,0,1,.27-1.38,3.752,3.752,0,0,1,1.8-1.949,2.773,2.773,0,0,1,1.26-.3,2.829,2.829,0,0,1,1.455.36,3.164,3.164,0,0,1,1.006.915,3.844,3.844,0,0,1,.57,1.245,5.388,5.388,0,0,1,.18,1.35,7.194,7.194,0,0,1-.211,1.709,8.4,8.4,0,0,1-.6,1.681,2.812,2.812,0,0,0,.54-.5q.24-.285.48-.615c.16-.22.33-.446.511-.675A7.941,7.941,0,0,1,44.939,12.756Zm-8.879,0a.306.306,0,0,1,.015-.105.361.361,0,0,0,.014-.105.118.118,0,0,1,.031-.089c-.041,0-.09.07-.15.21a4.21,4.21,0,0,0-.18.539q-.092.33-.165.75a4.678,4.678,0,0,0-.076.84,5.73,5.73,0,0,0,.076.96,2.476,2.476,0,0,0,.254.78,4.845,4.845,0,0,1-.179-1.471,8.194,8.194,0,0,1,.1-1.335A4.006,4.006,0,0,1,36.06,12.756Zm2.129,4.38a.919.919,0,0,0,.27.03,2.158,2.158,0,0,0,1.291-.54,4.049,4.049,0,0,1-1.26-.87,5.674,5.674,0,0,1-.99-1.351,4.168,4.168,0,0,0-.181,1.141,2.079,2.079,0,0,0,.225.99A1.3,1.3,0,0,0,38.189,17.136Zm2.25-1.59a6.18,6.18,0,0,0,.391-.811c.139-.339.27-.709.39-1.109a12.541,12.541,0,0,0,.3-1.23,6.279,6.279,0,0,0,.12-1.17,2.477,2.477,0,0,0-.271-1.245.986.986,0,0,0-.93-.465,1.37,1.37,0,0,0-.81.255,2.175,2.175,0,0,0-.614.69,3.662,3.662,0,0,0-.39.975,4.672,4.672,0,0,0-.03,2.1,2.959,2.959,0,0,0,.344.885,2.62,2.62,0,0,0,.616.705A2.2,2.2,0,0,0,40.439,15.546Zm.96-6.66a1.817,1.817,0,0,1,.466.316,3,3,0,0,1,.449.494,5.618,5.618,0,0,1,.346.54,1.021,1.021,0,0,1,.15.48c.019.04.04.08.059.12s.03.05.03.03a1.539,1.539,0,0,0-.12-.525,3.307,3.307,0,0,0-.314-.615,2.5,2.5,0,0,0-.481-.54A1.3,1.3,0,0,0,41.4,8.886Z" style="fill: #4f5fff"/>
            </g>
            <g style="isolation: isolate">
              <path d="M61.89,19.806a4.186,4.186,0,0,1,.03.63,4.617,4.617,0,0,1-.18,1.3,2.706,2.706,0,0,1-.585,1.066,2.877,2.877,0,0,1-1.051.719,3.964,3.964,0,0,1-1.544.271,9.994,9.994,0,0,1-2.3-.271,14.642,14.642,0,0,1-2.28-.734,21.465,21.465,0,0,1-2.2-1.065q-1.08-.6-2.07-1.23,0,.15.015.33c.009.119.015.239.015.36a1.76,1.76,0,0,1-.06.48.259.259,0,0,1-.27.21,1.028,1.028,0,0,1-.7-.405q-.375-.4-.525-.585a2.557,2.557,0,0,1-.405-.81,6.36,6.36,0,0,1-.165-1.051c-.161-.139-.33-.274-.51-.4a5.173,5.173,0,0,1-.51-.42,2.374,2.374,0,0,1-.405-.5,1.189,1.189,0,0,1-.165-.63.994.994,0,0,1,.015-.18,1.1,1.1,0,0,0,.015-.18,1.422,1.422,0,0,1,.045-.285,3.806,3.806,0,0,1,.105-.375,1.658,1.658,0,0,1,.15-.33.252.252,0,0,1,.21-.15q.06,0,.2.135t.315.33q.18.195.36.4c.12.141.229.261.33.361a45.351,45.351,0,0,1,1.605-7.155A62.038,62.038,0,0,1,51.99,2.707a4.5,4.5,0,0,0-.886.554c-.29.231-.569.47-.839.72s-.525.51-.765.78-.45.515-.63.736a20.455,20.455,0,0,0-1.41,2.054,4.434,4.434,0,0,0-.66,2.325,2.225,2.225,0,0,0,.06.525.808.808,0,0,0,.21.4q-.15.24-.24.24h-.18a.363.363,0,0,1-.24-.075.533.533,0,0,0-.33-.075,4.926,4.926,0,0,1-1.335-.84,1.7,1.7,0,0,1-.525-1.32,3,3,0,0,1,.39-1.44,8.789,8.789,0,0,1,.945-1.4,11.523,11.523,0,0,1,1.17-1.23q.615-.555,1.065-.915.54-.42,1.185-.855a12.675,12.675,0,0,1,1.32-.779,8.291,8.291,0,0,1,1.365-.556,4.618,4.618,0,0,1,1.35-.21,1.537,1.537,0,0,1,1.185.436A1.625,1.625,0,0,1,54.6,2.946a4.579,4.579,0,0,1-.27,1.5c-.18.52-.341.94-.48,1.261a52.075,52.075,0,0,0-2.34,6.284,63.3,63.3,0,0,0-1.59,6.555A14.049,14.049,0,0,0,53.385,20.2a12.213,12.213,0,0,0,3.8.631,7.162,7.162,0,0,0,2.16-.33,2.444,2.444,0,0,0,1.53-1.35A.564.564,0,0,0,61.1,19c.05-.06.094-.091.134-.091a.124.124,0,0,1,.061.016.209.209,0,0,0,.09.015v.179c.06,0,.09-.019.09-.059q.12,0,.2.24a.577.577,0,0,0,.165.3.177.177,0,0,0,.03.12ZM45.12,9.966a3.914,3.914,0,0,1-.24-1.35,4.455,4.455,0,0,1,.36-1.71,3.636,3.636,0,0,0-.6,1.77A1.949,1.949,0,0,0,45.12,9.966Zm3.6,3.96q.45-1.588.96-3.42t1.08-3.96q-.51,1.5-.96,2.985t-.825,2.85q-.375,1.365-.645,2.55t-.39,2.054a.785.785,0,0,0,.06.106,1.067,1.067,0,0,1,.06.1,11.608,11.608,0,0,1,.24-1.5Q48.48,14.885,48.72,13.926Zm.78-.84a.456.456,0,0,0,.06-.18q-.03,0-.105.225c-.05.149-.125.4-.226.765q-.358,1.438-.569,2.25a5.73,5.73,0,0,0-.21,1.41l.12.059a13.154,13.154,0,0,1,.3-2.01q.24-1.079.57-2.339Zm2.49,7.05a8.467,8.467,0,0,0,4.53,1.2,2.18,2.18,0,0,0,.27-.016,2.426,2.426,0,0,1,.27-.014A15.075,15.075,0,0,1,51.99,20.136Z" style="fill: #4f5fff"/>
            </g>
            <g style="isolation: isolate">
              <path d="M61.589,12.906c.2-.159.385-.3.555-.435a.757.757,0,0,1,.405-.2.133.133,0,0,1,.15.15,2.673,2.673,0,0,1-.24.66q-.24.539-.63,1.26t-.9,1.53a16.131,16.131,0,0,1-1.065,1.5,8.086,8.086,0,0,1-1.095,1.14,1.617,1.617,0,0,1-.99.45,1.546,1.546,0,0,1-1.455-.75,3.345,3.345,0,0,1-.435-1.71,11.012,11.012,0,0,1,.7-3.554q.7-2.026,1.665-4.156c.06-.16.229-.24.51-.24a1.7,1.7,0,0,1,.57.106,2.272,2.272,0,0,1,.555.284,1.712,1.712,0,0,1,.435.45,1.013,1.013,0,0,1,.18.57,1.16,1.16,0,0,1-.15.571,28.083,28.083,0,0,0-1.74,3.794,9.574,9.574,0,0,0-.69,3.225,4.41,4.41,0,0,0,1.065-.975,15.746,15.746,0,0,0,.944-1.306c.3-.46.585-.9.856-1.335A5.9,5.9,0,0,1,61.589,12.906Zm-3.87,3.48a5.677,5.677,0,0,1,.27-1.08q.239-.75.51-1.5t.495-1.32c.15-.379.235-.56.255-.54q-.18,0-.45.555a13.189,13.189,0,0,0-.54,1.3q-.27.75-.465,1.514a5.16,5.16,0,0,0-.2,1.156c0,.2.009.3.03.3S57.679,16.646,57.719,16.386Zm3.21-8.46a.325.325,0,0,1-.241.09,1.065,1.065,0,0,1-.375-.09,2.1,2.1,0,0,1-.419-.224,1.466,1.466,0,0,1-.331-.316.6.6,0,0,1-.134-.36,3.017,3.017,0,0,1,.134-.66,8.334,8.334,0,0,1,.346-.975,5.1,5.1,0,0,1,.465-.87q.255-.375.465-.375a1.4,1.4,0,0,1,.525.135,4.211,4.211,0,0,1,.615.33,3.188,3.188,0,0,1,.51.405.577.577,0,0,1,.21.36.123.123,0,0,1-.03.09,9.278,9.278,0,0,0-.825,1.065Q61.5,7.056,60.929,7.926Zm-1.02-1.469a.143.143,0,0,1-.015.059.212.212,0,0,0-.015.09q.15,0,.21-.225c.04-.15.059-.214.059-.2.021,0,.071-.069.151-.21s.16-.295.24-.465.149-.33.21-.48a1.122,1.122,0,0,0,.09-.284c-.04,0-.11.08-.21.239s-.2.346-.316.556-.205.4-.284.584A1.337,1.337,0,0,0,59.909,6.457Z" style="fill: #4f5fff"/>
            </g>
            <g style="isolation: isolate">
              <path d="M66.659,8.226a1.7,1.7,0,0,1-.39.93.945.945,0,0,1,.03.27,1.32,1.32,0,0,1-.285.781,4.718,4.718,0,0,1-.675.734,9.8,9.8,0,0,1-.811.645q-.42.3-.659.51a4.583,4.583,0,0,0-.091.9,7.7,7.7,0,0,0,.12,1.318c.081.461.181.915.3,1.366s.244.884.375,1.3.244.811.345,1.17a1.494,1.494,0,0,1,.03.33.734.734,0,0,1-.5.721,2.943,2.943,0,0,1-1.155.21,4.813,4.813,0,0,1-1.155-.136,3.13,3.13,0,0,1-.855-.314,3.254,3.254,0,0,1-.615-.5,5.143,5.143,0,0,1-.57-.675,4.928,4.928,0,0,1-.42-.7,1.458,1.458,0,0,1-.165-.615,1.914,1.914,0,0,1,.134-.7.6.6,0,0,1,.466-.406l.09.031a3.345,3.345,0,0,1,.479.45c.161.179.331.365.511.554s.36.371.54.54a3.232,3.232,0,0,0,.57.436,10.527,10.527,0,0,1-.7-2.221,11.756,11.756,0,0,1-.286-2.488,4.737,4.737,0,0,1,.21-1.531,4.13,4.13,0,0,1,.826-1.275A9.49,9.49,0,0,1,63.6,8.707a8.772,8.772,0,0,1,1.29-.841,2.336,2.336,0,0,1,.96-.329A.521.521,0,0,1,66,7.6c.079,0,.12.03.12.09a.28.28,0,0,1-.03.12l.15-.09.119.031a1.3,1.3,0,0,1,.165.239C66.594,8.106,66.639,8.186,66.659,8.226Zm-4.591,2.7a15.989,15.989,0,0,1,2.761-2.639,7.055,7.055,0,0,0-1.65,1.184A6.1,6.1,0,0,0,62.068,10.926Zm.6-.24c.2-.24.42-.479.66-.72a7.624,7.624,0,0,1,.84-.719A3.73,3.73,0,0,0,62.669,10.686Zm1.59,6.629a13.38,13.38,0,0,1-.87-4.08,2.588,2.588,0,0,1-.015.286,2.342,2.342,0,0,0-.016.285A6.89,6.89,0,0,0,64.259,17.315Z" style="fill: #4f5fff"/>
            </g>
            <g style="isolation: isolate">
              <path d="M72.839,8.077a3.077,3.077,0,0,0-.93-.091c-.221,0-.475.006-.764.015s-.585.015-.886.015q-.42,1.021-.87,2.175t-.81,2.31q-.36,1.155-.6,2.25a9.105,9.105,0,0,0-.24,1.935,3.524,3.524,0,0,0,.09.839,4.023,4.023,0,0,0,1.515-1.29q.675-.9,1.245-1.814t1.08-1.6a1.381,1.381,0,0,1,1.05-.69c.1,0,.15.041.15.121a1.884,1.884,0,0,1-.21.554q-.21.435-.54,1.035t-.735,1.274q-.4.677-.8,1.276-.24.36-.555.8a5.951,5.951,0,0,1-.705.809,4.369,4.369,0,0,1-.825.631,1.732,1.732,0,0,1-.885.255,1.554,1.554,0,0,1-1.245-.766,3.9,3.9,0,0,1-.555-2.295,12.3,12.3,0,0,1,.15-1.83q.15-.988.405-2.024t.585-2.085q.33-1.05.69-2.01A3.984,3.984,0,0,1,66.374,7.4a1.031,1.031,0,0,1-.525-.944.681.681,0,0,1,.1-.375c.07-.111.145-.165.225-.165a.242.242,0,0,1,.18.12.9.9,0,0,0,.63.464,4.238,4.238,0,0,0,1.14.135,18.645,18.645,0,0,1,1.155-2.474q.435-.7.675-.7a1.068,1.068,0,0,1,.84.569,2.283,2.283,0,0,1,.39,1.32,1.95,1.95,0,0,1-.15.81.539.539,0,0,0-.06.24.026.026,0,0,0,.03.03h.18c.16-.019.305-.035.435-.045s.255-.015.375-.015a1.307,1.307,0,0,1,.811.18c.139.121.21.411.21.871,0,.04-.011.16-.031.359S72.919,8.077,72.839,8.077ZM66.6,13.806a53.36,53.36,0,0,1,1.65-5.849l-.12-.031q-.6,1.62-.99,3.105A20.166,20.166,0,0,0,66.6,13.806Z" style="fill: #4f5fff"/>
            </g>
          </g>
        </g>
      </g>
    </g>
  </g>
</svg>
